Patient4_TMGait_0pt4_03_right_13_EMG.mot
version=1
nRows=23
nColumns=33
inDegrees=no
endheader
time	1LAddLong	2LGlutMax	3LGlutMed	4LIliopsoas	5LSemiMemb	6LBicFemLong	7LRecFem	8LVastMed	9LVastLat	10LGasMed	11LTibAnt	12lTibPost	13LPeroneusLong	14LSol	15LExtDigLong	16LFlexDigLong	17RAddLong	18RGlutMax	19RGlutMed	20RIliopsoas	21RSemiMemb	22RBicFemLong	23RRecFem	24RVastMed	25RVastLat	26RGasMed	27RTibAnt	28RTibPost	29RPeroneusLong	30RSol	31RExtDigLong	32RFlexDigLong
16.13	0.006104	0.093079	0.15121	0	-0.000305	-0.009918	-0.01297	0.010071	0.050812	0.007019	0.10269	0.010376	-0.002747	0.034485	0.54001	-0.13138	-0.001526	-0.13687	0.18433	0.11261	0.04425	0.12817	-0.032349	-0.090027	0.027771	-0.020294	0.009766	-0.008698	-0.086517	-0.10132	0	0.003204
16.131	0.006866	0.084534	0.073395	0.013885	0.006561	-0.018311	-0.009308	0.013733	0.067444	0.05722	0.02655	0.015869	-0.072479	0.08728	0.44388	-0.047302	-0.000916	-0.10452	0.014191	0.029449	0.019073	0.09964	-0.023346	-0.083008	0.010834	-0.023956	0.33829	-0.005035	-0.20187	0.036316	-0.001526	-0.013123
16.132	-0.004425	0.058289	0.14236	0.014038	-0.006714	-0.021667	0.038147	0.015564	-0.029602	0.04303	-0.10407	0.006866	-0.049438	-0.094452	-0.18021	-0.21881	0.001068	-0.11414	0.26459	-0.1059	0.00473	0.092926	-0.020294	-0.11185	0.011139	-0.026245	0.15091	-0.005798	-0.16663	0.1831	-0.006409	-0.002136
16.133	-0.003204	0.062256	0.10895	0.007019	0.020752	-0.038452	0.000153	0.013123	-0.17181	0.026703	0.11078	0.013733	-0.094147	-0.17548	-0.025024	-0.063934	0.012207	-0.12558	-0.075989	-0.055847	0.019531	0.092316	-0.00412	-0.11047	-0.017548	-0.021515	-0.43488	-0.001984	0.031281	0.059357	-0.000458	-0.011597
16.134	0.008087	0.075073	0.053711	0.00473	0.00885	-0.053864	-0.054626	0.016022	-0.15808	0.016022	0.10117	0.079651	-0.14008	-0.16495	0.047913	0.2594	0.007172	-0.014496	0.061035	-0.065613	0.031891	0.10437	-0.018463	-0.09964	-0.01236	-0.01709	-0.18951	-0.001984	0.065308	-0.084381	0.000305	-0.004578
16.135	0.006714	0.08194	0.030975	0.011597	0.006409	-0.06073	-0.073853	0.011902	0.12116	-0.005798	0.10315	0.15625	-0.15808	0.17364	-0.031281	0.041504	0.012207	0.034332	0.36728	-0.17609	0.054169	0.10498	-0.022583	-0.099487	0.007172	-0.015717	0.002899	-0.003052	0.010681	-0.086365	-0.000458	-0.009308
16.136	0.010376	0.097198	0.032806	0.007935	0.004883	-0.007935	-0.062408	0.005035	0.28717	0.001526	-0.011902	-0.040436	-0.065918	0.35019	0.044861	-0.29968	0.002594	0.001373	0.29053	-0.14114	0.007935	0.12634	-0.023804	-0.085754	0.005798	-0.012817	0.007172	-0.002747	-0.000153	-0.053558	0.006561	-0.002441
16.137	-0.002289	0.050659	0.07309	0.002747	0.016479	0.012054	0.028229	-0.0177	0.23468	0.012512	0.033569	0.009918	0.023651	0.11856	0.1033	0.21332	0.01297	-0.030975	0.14954	-0.033264	-0.036621	0.1152	-0.013428	-0.066833	0.007935	-0.010376	0.13214	-0.003052	0.033569	-0.024261	0.002747	-0.00412
16.138	0.001221	0.024872	0.080414	0.010834	0.023956	0.022125	0.059357	-0.00885	0.025482	0.008392	0.050812	-0.007935	0.06485	0.14923	0.50232	0.089264	0.017853	-0.037994	-0.75165	-0.026093	-0.012207	0.097504	-0.008698	-0.13321	0.001373	-0.007019	0.098877	-0.013428	0.075836	0.081329	-0.00412	-0.001373
16.139	-0.001373	0.028687	0.021362	0.020599	-0.035095	-0.017548	0.11032	0.003815	-0.12344	-0.02594	-0.094147	-0.00824	0.043335	0.15991	0.56381	-0.020752	0.007629	-0.00885	-0.18188	-0.1503	0.016632	0.10605	-0.013123	-0.088806	0.010986	-0.011139	-0.11856	-0.01358	0.062866	0.10773	-0.002136	-0.008392
16.14	0.008545	0.029144	0.00412	0.023804	-0.06897	-0.025787	0.025482	0.012817	-0.050201	-0.073547	-0.012512	-0.021515	-0.029297	0.13001	0.35019	-0.0737	0.017548	-0.010834	0.61157	-0.13489	0.017853	0.11261	-0.02243	-0.093079	-0.000305	-0.018311	-0.17853	-0.012512	0.03006	0.12756	-0.001373	-0.003662
16.141	0.008545	0.023956	0.011444	-0.001678	-0.058899	-0.05188	-0.11948	0.021973	0.099792	-0.013885	0.19424	0.020294	-0.10605	0.13245	0.26657	-0.044556	0.019836	-0.022278	0.80841	-0.051422	0.011749	0.10986	0.00946	-0.088348	0.016022	-0.014496	-0.17746	-0.005493	0.05249	0.11078	-0.00061	-0.000458
16.142	0.016479	-0.022888	0.012207	-0.006104	0.071564	-0.059052	-0.10208	0.004272	0.20416	0.016632	0.1297	0.038147	-0.024414	-0.27618	-0.62103	0.34332	0.010681	-0.086823	1.0703	0.080566	0.018005	0.11719	-0.002747	-0.12909	0.005341	-0.015259	-0.12161	-0.003967	-0.052338	0.042114	0.003662	-0.009613
16.143	0.016937	-0.027771	-0.011139	-0.018616	0.089417	-0.024719	0.00885	-0.010376	0.2504	-0.007172	0.1088	0.020752	0.036011	-0.30197	-0.21362	-0.22629	-0.006256	-0.13229	0.009918	0.21042	0.011444	0.12192	0.005951	-0.10452	0.002136	-0.021057	-0.01709	-0.002899	-0.14404	-0.040131	0.002289	-0.002289
16.144	0.003357	-0.032501	-0.037231	0.005646	0.07782	-0.01297	0.037079	-0.005951	-0.004272	0.002289	-0.005798	0.00885	-0.016479	-0.33463	-0.44632	-0.073242	-0.021973	-0.16525	-0.37582	0.083923	0.019684	0.12756	-0.044098	-0.054321	-0.005951	-0.012207	-0.047913	-0.003967	-0.15106	-0.027924	0.001831	-0.003357
16.145	0.007019	-0.028381	-0.028534	0.005341	0.061188	-0.003967	-0.000305	-0.010223	-0.18448	0.026855	-0.56854	0.014801	-0.070038	-0.28763	-0.45883	0.043335	-0.015411	-0.15427	-0.40573	0.000763	0.029602	0.11032	-0.018005	-0.046844	0.005798	-0.013885	0.066986	-0.00061	-0.007324	-0.017548	-0.002441	-0.00061
16.146	0.001068	-0.02655	0.016479	0.005951	0.051422	-0.001221	0.037384	-0.005341	-0.25742	0.022278	-0.62988	0.008545	-0.04715	0.043945	-0.61203	0.043488	-0.007935	-0.14801	0.16159	-0.076904	0.03418	0.10757	0.010834	-0.034485	0.016785	-0.011444	0.12726	-0.005188	-0.10544	-0.001678	-0.002136	-0.00824
16.147	0.003204	-0.029602	0.024109	0.005188	0.040588	-0.007629	0.062561	-0.002441	-0.17303	-0.033264	-0.26245	0.000916	0.061646	0.019531	-0.048523	0.009308	-0.011292	-0.11429	0.035553	-0.027313	0.016327	0.11566	0.013275	-0.053406	0.014954	-0.002136	0.071564	0.000305	-0.079498	0.029449	-0.000305	-0.000153
16.148	0.008087	-0.04364	0.076294	-0.000916	0.037079	-0.028534	0.099335	-0.002289	-0.12466	-0.024719	0.15366	0.008545	0.0383	-0.041199	-0.066986	-0.011139	0.00824	-0.085907	-0.38086	0.12024	-0.032043	0.14832	-0.041656	-0.04776	0.026703	-0.00061	0.037079	-0.006256	0.17227	-0.012512	0.002289	-0.000916
16.149	0.009308	-0.039673	-0.000458	0.00824	0.026245	-0.037689	0.10254	0.00351	-0.084839	-0.016174	0.14328	0.00885	0.033875	0.02243	-0.016174	-0.059967	0.00885	-0.096283	-0.37125	0.12695	-0.053864	0.14023	0.010071	-0.020294	0.018463	-0.004425	0.10529	-0.006409	0.20065	-0.093689	0.003815	-0.013123
16.15	-0.001068	-0.075989	-0.13947	0.002747	0.020142	-0.013733	0.075684	-0.002136	-0.070343	0.00824	0.086823	0.024414	-0.019531	0.032196	-0.18478	-0.042725	0.030518	-0.088501	-0.45197	0.097961	-0.067291	0.12344	-0.033112	-0.049286	0.01236	0.004272	0.13275	-0.005188	0.14999	-0.1387	0.001526	-0.005035
16.151	0.000763	-0.062561	-0.1326	0.005798	0.010681	-0.009155	0.045776	-0.003204	-0.05249	0.034332	0.089417	0.013123	-0.048981	0.034027	-0.14267	0.19653	0.024719	-0.06897	-0.61737	0.028076	-0.058594	0.13443	-0.055695	-0.062561	0.016174	0.004883	0.015411	-0.000153	0.090637	-0.12711	-0.00061	0.000458
16.152	0.006409	-0.092468	-0.02121	0.004883	0.007172	-0.013885	0.026093	-0.001373	-0.035553	0.036621	-0.022125	0.024872	-0.018158	0.15167	-0.06546	-0.65689	0.001678	-0.024109	-0.56061	0.002441	-0.003052	0.14618	-0.053406	-0.049133	-0.002289	-0.004578	-0.047913	0.005798	-0.47195	-0.10971	-0.001068	-0.002594
